{
	"asset": {
		"version": "2.0",
		"generator": "wow.export v0.1.65 win-x64 [d1c6caee-c9d0-469b-8ef3-69abea558672]"
	},
	"nodes": [
		{
			"name": "battlestance_impact_head",
			"children": [
				1,
				32,
				33,
				34,
				35,
				36,
				37
			]
		},
		{
			"name": "battlestance_impact_head",
			"children": [
				2,
				18,
				20
			]
		},
		{
			"name": "bone_0_p",
			"translation": [
				0,
				0.9722222089767456,
				0
			],
			"children": [
				3
			]
		},
		{
			"name": "bone_0",
			"children": [
				4,
				22,
				24,
				26,
				28,
				30
			]
		},
		{
			"name": "bone_1_p",
			"translation": [
				0,
				0,
				0
			],
			"children": [
				5
			]
		},
		{
			"name": "bone_1",
			"children": [
				6,
				8,
				10,
				12,
				14,
				16
			]
		},
		{
			"name": "bone_2_p",
			"translation": [
				0.03271515667438507,
				-0.09110760688781738,
				-0.0018032636726275086
			],
			"children": [
				7
			]
		},
		{
			"name": "bone_2"
		},
		{
			"name": "bone_3_p",
			"translation": [
				-0.0018841930432245135,
				-0.09110760688781738,
				0.0028409177903085947
			],
			"children": [
				9
			]
		},
		{
			"name": "bone_3"
		},
		{
			"name": "bone_4_p",
			"translation": [
				0,
				0.03898143768310547,
				0.0059586395509541035
			],
			"children": [
				11
			]
		},
		{
			"name": "bone_4"
		},
		{
			"name": "bone_5_p",
			"translation": [
				0,
				0.03898143768310547,
				0.003336608409881592
			],
			"children": [
				13
			]
		},
		{
			"name": "bone_5"
		},
		{
			"name": "bone_6_p",
			"translation": [
				0.0651778057217598,
				-0.09110760688781738,
				-0.0018032636726275086
			],
			"children": [
				15
			]
		},
		{
			"name": "bone_6"
		},
		{
			"name": "bone_7_p",
			"translation": [
				0.030578460544347763,
				-0.09110760688781738,
				0.0028409177903085947
			],
			"children": [
				17
			]
		},
		{
			"name": "bone_7"
		},
		{
			"name": "bone_8_p",
			"translation": [
				-0.033193718641996384,
				1.0363167524337769,
				-0.0014756122836843133
			],
			"children": [
				19
			]
		},
		{
			"name": "bone_8"
		},
		{
			"name": "bone_9_p",
			"translation": [
				-0.03319370374083519,
				1.2966386079788208,
				-0.0014756122836843133
			],
			"children": [
				21
			]
		},
		{
			"name": "bone_9"
		},
		{
			"name": "bone_10_p",
			"translation": [
				0.15030573308467865,
				0.39562976360321045,
				0.09544786065816879
			],
			"children": [
				23
			]
		},
		{
			"name": "bone_10"
		},
		{
			"name": "bone_11_p",
			"translation": [
				0.15030573308467865,
				0.39562976360321045,
				0.09543997049331665
			],
			"children": [
				25
			]
		},
		{
			"name": "bone_11"
		},
		{
			"name": "bone_12_p",
			"translation": [
				0.08318241685628891,
				-0.23965728282928467,
				-0.1315268725156784
			],
			"children": [
				27
			]
		},
		{
			"name": "bone_12"
		},
		{
			"name": "bone_13_p",
			"translation": [
				0,
				0.2648547887802124,
				0
			],
			"children": [
				29
			]
		},
		{
			"name": "bone_13"
		},
		{
			"name": "bone_14_p",
			"translation": [
				0.08318241685628891,
				-0.23965728282928467,
				-0.13153471052646637
			],
			"children": [
				31
			]
		},
		{
			"name": "bone_14"
		},
		{
			"name": "battlestance_impact_head_Geoset0",
			"mesh": 0,
			"skin": 0
		},
		{
			"name": "battlestance_impact_head_Geoset1",
			"mesh": 1,
			"skin": 0
		},
		{
			"name": "battlestance_impact_head_Geoset2",
			"mesh": 2,
			"skin": 0
		},
		{
			"name": "battlestance_impact_head_Geoset3",
			"mesh": 3,
			"skin": 0
		},
		{
			"name": "battlestance_impact_head_Geoset4",
			"mesh": 4,
			"skin": 0
		},
		{
			"name": "battlestance_impact_head_Geoset5",
			"mesh": 5,
			"skin": 0
		}
	],
	"scenes": [
		{
			"name": "battlestance_impact_head_Scene",
			"nodes": [
				0
			]
		}
	],
	"buffers": [
		{
			"uri": "battlestance_impact_head.bin",
			"byteLength": 24504
		},
		{
			"uri": "battlestance_impact_head_anim0-0.bin",
			"byteLength": 2264
		}
	],
	"bufferViews": [
		{
			"buffer": 0,
			"byteLength": 5376,
			"byteOffset": 0,
			"target": 34962
		},
		{
			"buffer": 0,
			"byteLength": 5376,
			"byteOffset": 5376,
			"target": 34962
		},
		{
			"buffer": 0,
			"byteLength": 1792,
			"byteOffset": 10752,
			"target": 34962
		},
		{
			"buffer": 0,
			"byteLength": 1792,
			"byteOffset": 12544,
			"target": 34962
		},
		{
			"buffer": 0,
			"byteLength": 960,
			"byteOffset": 14336
		},
		{
			"buffer": 1,
			"byteLength": 28,
			"byteOffset": 0,
			"name": "SCALE_TIMESTAMPS_1_0"
		},
		{
			"buffer": 1,
			"byteLength": 84,
			"byteOffset": 28,
			"name": "SCALE_VALUES_1_0"
		},
		{
			"buffer": 1,
			"byteLength": 24,
			"byteOffset": 112,
			"name": "TRANS_TIMESTAMPS_2_0"
		},
		{
			"buffer": 1,
			"byteLength": 72,
			"byteOffset": 136,
			"name": "TRANS_VALUES_2_0"
		},
		{
			"buffer": 1,
			"byteLength": 24,
			"byteOffset": 208,
			"name": "ROT_TIMESTAMPS_2_0"
		},
		{
			"buffer": 1,
			"byteLength": 96,
			"byteOffset": 232,
			"name": "ROT_VALUES_2_0"
		},
		{
			"buffer": 1,
			"byteLength": 24,
			"byteOffset": 328,
			"name": "TRANS_TIMESTAMPS_3_0"
		},
		{
			"buffer": 1,
			"byteLength": 72,
			"byteOffset": 352,
			"name": "TRANS_VALUES_3_0"
		},
		{
			"buffer": 1,
			"byteLength": 24,
			"byteOffset": 424,
			"name": "ROT_TIMESTAMPS_3_0"
		},
		{
			"buffer": 1,
			"byteLength": 96,
			"byteOffset": 448,
			"name": "ROT_VALUES_3_0"
		},
		{
			"buffer": 1,
			"byteLength": 132,
			"byteOffset": 544,
			"name": "SCALE_TIMESTAMPS_4_0"
		},
		{
			"buffer": 1,
			"byteLength": 396,
			"byteOffset": 676,
			"name": "SCALE_VALUES_4_0"
		},
		{
			"buffer": 1,
			"byteLength": 132,
			"byteOffset": 1072,
			"name": "SCALE_TIMESTAMPS_5_0"
		},
		{
			"buffer": 1,
			"byteLength": 396,
			"byteOffset": 1204,
			"name": "SCALE_VALUES_5_0"
		},
		{
			"buffer": 1,
			"byteLength": 28,
			"byteOffset": 1600,
			"name": "TRANS_TIMESTAMPS_6_0"
		},
		{
			"buffer": 1,
			"byteLength": 84,
			"byteOffset": 1628,
			"name": "TRANS_VALUES_6_0"
		},
		{
			"buffer": 1,
			"byteLength": 24,
			"byteOffset": 1712,
			"name": "ROT_TIMESTAMPS_6_0"
		},
		{
			"buffer": 1,
			"byteLength": 96,
			"byteOffset": 1736,
			"name": "ROT_VALUES_6_0"
		},
		{
			"buffer": 1,
			"byteLength": 20,
			"byteOffset": 1832,
			"name": "SCALE_TIMESTAMPS_6_0"
		},
		{
			"buffer": 1,
			"byteLength": 60,
			"byteOffset": 1852,
			"name": "SCALE_VALUES_6_0"
		},
		{
			"buffer": 1,
			"byteLength": 28,
			"byteOffset": 1912,
			"name": "TRANS_TIMESTAMPS_7_0"
		},
		{
			"buffer": 1,
			"byteLength": 84,
			"byteOffset": 1940,
			"name": "TRANS_VALUES_7_0"
		},
		{
			"buffer": 1,
			"byteLength": 24,
			"byteOffset": 2024,
			"name": "ROT_TIMESTAMPS_7_0"
		},
		{
			"buffer": 1,
			"byteLength": 96,
			"byteOffset": 2048,
			"name": "ROT_VALUES_7_0"
		},
		{
			"buffer": 1,
			"byteLength": 20,
			"byteOffset": 2144,
			"name": "SCALE_TIMESTAMPS_7_0"
		},
		{
			"buffer": 1,
			"byteLength": 60,
			"byteOffset": 2164,
			"name": "SCALE_VALUES_7_0"
		},
		{
			"buffer": 1,
			"byteLength": 4,
			"byteOffset": 2224,
			"name": "ROT_TIMESTAMPS_12_0"
		},
		{
			"buffer": 1,
			"byteLength": 16,
			"byteOffset": 2228,
			"name": "ROT_VALUES_12_0"
		},
		{
			"buffer": 1,
			"byteLength": 4,
			"byteOffset": 2244,
			"name": "ROT_TIMESTAMPS_14_0"
		},
		{
			"buffer": 1,
			"byteLength": 16,
			"byteOffset": 2248,
			"name": "ROT_VALUES_14_0"
		},
		{
			"buffer": 0,
			"byteLength": 3584,
			"byteOffset": 15296,
			"target": 34962
		},
		{
			"buffer": 0,
			"byteLength": 3584,
			"byteOffset": 18880,
			"target": 34962
		},
		{
			"buffer": 0,
			"byteLength": 6,
			"byteOffset": 22464,
			"target": 34963
		},
		{
			"buffer": 0,
			"byteLength": 672,
			"byteOffset": 22470,
			"target": 34963
		},
		{
			"buffer": 0,
			"byteLength": 6,
			"byteOffset": 23142,
			"target": 34963
		},
		{
			"buffer": 0,
			"byteLength": 6,
			"byteOffset": 23148,
			"target": 34963
		},
		{
			"buffer": 0,
			"byteLength": 6,
			"byteOffset": 23154,
			"target": 34963
		},
		{
			"buffer": 0,
			"byteLength": 1344,
			"byteOffset": 23160,
			"target": 34963
		}
	],
	"accessors": [
		{
			"name": "POSITION",
			"bufferView": 0,
			"byteOffset": 0,
			"componentType": 5126,
			"count": 448,
			"type": "VEC3",
			"min": [
				-0.08482464402914047,
				0.3638460040092468,
				-0.5662553310394287
			],
			"max": [
				0.14901843667030334,
				1.6324360370635986,
				0.6032565832138062
			]
		},
		{
			"name": "NORMAL",
			"bufferView": 1,
			"byteOffset": 0,
			"componentType": 5126,
			"count": 448,
			"type": "VEC3",
			"min": [
				-0.9998739361763,
				-1,
				-0.9997462630271912
			],
			"max": [
				1,
				0.8370856642723083,
				0.9998435378074646
			]
		},
		{
			"name": "JOINTS_0",
			"byteOffset": 0,
			"componentType": 5121,
			"count": 448,
			"type": "VEC4",
			"bufferView": 2,
			"min": [
				1,
				0,
				0,
				0
			],
			"max": [
				7,
				0,
				0,
				0
			]
		},
		{
			"name": "WEIGHTS_0",
			"byteOffset": 0,
			"componentType": 5121,
			"count": 448,
			"normalized": true,
			"type": "VEC4",
			"bufferView": 3,
			"min": [
				255,
				0,
				0,
				0
			],
			"max": [
				255,
				0,
				0,
				0
			]
		},
		{
			"name": "INV_BIND_MATRICES",
			"byteOffset": 0,
			"componentType": 5126,
			"count": 15,
			"type": "MAT4",
			"bufferView": 4,
			"min": [
				1,
				0,
				0,
				0,
				0,
				1,
				0,
				0,
				0,
				0,
				1,
				0,
				-0.15030573308467865,
				-1.367851972579956,
				-0.09544786065816879,
				1
			],
			"max": [
				1,
				0,
				0,
				0,
				0,
				1,
				0,
				0,
				0,
				0,
				1,
				0,
				0.033193718641996384,
				-0.7325649261474609,
				0.13153471052646637,
				1
			]
		},
		{
			"name": "SCALE_TIMESTAMPS_1_0",
			"bufferView": 5,
			"byteOffset": 0,
			"type": "SCALAR",
			"componentType": 5126,
			"min": [
				0
			],
			"max": [
				3
			],
			"count": 7
		},
		{
			"name": "SCALE_VALUES_1_0",
			"bufferView": 6,
			"byteOffset": 0,
			"type": "VEC3",
			"componentType": 5126,
			"min": [
				0,
				0,
				0
			],
			"max": [
				1.6499993801116943,
				2.000000476837158,
				1.649999976158142
			],
			"count": 7
		},
		{
			"name": "TRANS_TIMESTAMPS_2_0",
			"bufferView": 7,
			"byteOffset": 0,
			"type": "SCALAR",
			"componentType": 5126,
			"min": [
				0
			],
			"max": [
				3
			],
			"count": 6
		},
		{
			"name": "TRANS_VALUES_2_0",
			"bufferView": 8,
			"byteOffset": 0,
			"type": "VEC3",
			"componentType": 5126,
			"min": [
				0,
				0,
				-0.05708302929997444
			],
			"max": [
				0,
				0,
				0
			],
			"count": 6
		},
		{
			"name": "ROT_TIMESTAMPS_2_0",
			"bufferView": 9,
			"byteOffset": 0,
			"type": "SCALAR",
			"componentType": 5126,
			"min": [
				0
			],
			"max": [
				3
			],
			"count": 6
		},
		{
			"name": "ROT_VALUES_2_0",
			"bufferView": 10,
			"byteOffset": 0,
			"type": "VEC4",
			"componentType": 5126,
			"min": [
				0,
				0,
				0,
				0.9396954252754296
			],
			"max": [
				0.3420209356975005,
				0,
				0,
				1.000030518509476
			],
			"count": 6
		},
		{
			"name": "TRANS_TIMESTAMPS_3_0",
			"bufferView": 11,
			"byteOffset": 0,
			"type": "SCALAR",
			"componentType": 5126,
			"min": [
				0
			],
			"max": [
				3
			],
			"count": 6
		},
		{
			"name": "TRANS_VALUES_3_0",
			"bufferView": 12,
			"byteOffset": 0,
			"type": "VEC3",
			"componentType": 5126,
			"min": [
				0,
				0,
				0
			],
			"max": [
				0,
				0,
				0.059614673256874084
			],
			"count": 6
		},
		{
			"name": "ROT_TIMESTAMPS_3_0",
			"bufferView": 13,
			"byteOffset": 0,
			"type": "SCALAR",
			"componentType": 5126,
			"min": [
				0
			],
			"max": [
				3
			],
			"count": 6
		},
		{
			"name": "ROT_VALUES_3_0",
			"bufferView": 14,
			"byteOffset": 0,
			"type": "VEC4",
			"componentType": 5126,
			"min": [
				-0.3420209356975005,
				0,
				0,
				0.9396954252754296
			],
			"max": [
				0,
				0,
				0,
				1.000030518509476
			],
			"count": 6
		},
		{
			"name": "SCALE_TIMESTAMPS_4_0",
			"bufferView": 15,
			"byteOffset": 0,
			"type": "SCALAR",
			"componentType": 5126,
			"min": [
				0
			],
			"max": [
				3
			],
			"count": 33
		},
		{
			"name": "SCALE_VALUES_4_0",
			"bufferView": 16,
			"byteOffset": 0,
			"type": "VEC3",
			"componentType": 5126,
			"min": [
				0.9117845296859741,
				0.9117851257324219,
				0.911784827709198
			],
			"max": [
				1,
				1,
				1
			],
			"count": 33
		},
		{
			"name": "SCALE_TIMESTAMPS_5_0",
			"bufferView": 17,
			"byteOffset": 0,
			"type": "SCALAR",
			"componentType": 5126,
			"min": [
				0
			],
			"max": [
				3
			],
			"count": 33
		},
		{
			"name": "SCALE_VALUES_5_0",
			"bufferView": 18,
			"byteOffset": 0,
			"type": "VEC3",
			"componentType": 5126,
			"min": [
				0.9117844700813293,
				0.9117850661277771,
				0.9117847681045532
			],
			"max": [
				1,
				1,
				1
			],
			"count": 33
		},
		{
			"name": "TRANS_TIMESTAMPS_6_0",
			"bufferView": 19,
			"byteOffset": 0,
			"type": "SCALAR",
			"componentType": 5126,
			"min": [
				0
			],
			"max": [
				3
			],
			"count": 7
		},
		{
			"name": "TRANS_VALUES_6_0",
			"bufferView": 20,
			"byteOffset": 0,
			"type": "VEC3",
			"componentType": 5126,
			"min": [
				0,
				-0.14484305679798126,
				-0.17382311820983887
			],
			"max": [
				0,
				0,
				0
			],
			"count": 7
		},
		{
			"name": "ROT_TIMESTAMPS_6_0",
			"bufferView": 21,
			"byteOffset": 0,
			"type": "SCALAR",
			"componentType": 5126,
			"min": [
				0
			],
			"max": [
				3
			],
			"count": 6
		},
		{
			"name": "ROT_VALUES_6_0",
			"bufferView": 22,
			"byteOffset": 0,
			"type": "VEC4",
			"componentType": 5126,
			"min": [
				0,
				0,
				0,
				0.9396954252754296
			],
			"max": [
				0.3420209356975005,
				0,
				0,
				1.000030518509476
			],
			"count": 6
		},
		{
			"name": "SCALE_TIMESTAMPS_6_0",
			"bufferView": 23,
			"byteOffset": 0,
			"type": "SCALAR",
			"componentType": 5126,
			"min": [
				0
			],
			"max": [
				3
			],
			"count": 5
		},
		{
			"name": "SCALE_VALUES_6_0",
			"bufferView": 24,
			"byteOffset": 0,
			"type": "VEC3",
			"componentType": 5126,
			"min": [
				1,
				1,
				1
			],
			"max": [
				1.9360860586166382,
				1.936085820198059,
				1.936085820198059
			],
			"count": 5
		},
		{
			"name": "TRANS_TIMESTAMPS_7_0",
			"bufferView": 25,
			"byteOffset": 0,
			"type": "SCALAR",
			"componentType": 5126,
			"min": [
				0
			],
			"max": [
				3
			],
			"count": 7
		},
		{
			"name": "TRANS_VALUES_7_0",
			"bufferView": 26,
			"byteOffset": 0,
			"type": "VEC3",
			"componentType": 5126,
			"min": [
				0,
				-0.14130562543869019,
				0
			],
			"max": [
				0,
				0,
				0.16558468341827393
			],
			"count": 7
		},
		{
			"name": "ROT_TIMESTAMPS_7_0",
			"bufferView": 27,
			"byteOffset": 0,
			"type": "SCALAR",
			"componentType": 5126,
			"min": [
				0
			],
			"max": [
				3
			],
			"count": 6
		},
		{
			"name": "ROT_VALUES_7_0",
			"bufferView": 28,
			"byteOffset": 0,
			"type": "VEC4",
			"componentType": 5126,
			"min": [
				-0.3420209356975005,
				0,
				0,
				0.9396954252754296
			],
			"max": [
				0,
				0,
				0,
				1.000030518509476
			],
			"count": 6
		},
		{
			"name": "SCALE_TIMESTAMPS_7_0",
			"bufferView": 29,
			"byteOffset": 0,
			"type": "SCALAR",
			"componentType": 5126,
			"min": [
				0
			],
			"max": [
				3
			],
			"count": 5
		},
		{
			"name": "SCALE_VALUES_7_0",
			"bufferView": 30,
			"byteOffset": 0,
			"type": "VEC3",
			"componentType": 5126,
			"min": [
				1,
				1,
				1
			],
			"max": [
				1.9360860586166382,
				1.9360860586166382,
				1.9360860586166382
			],
			"count": 5
		},
		{
			"name": "ROT_TIMESTAMPS_12_0",
			"bufferView": 31,
			"byteOffset": 0,
			"type": "SCALAR",
			"componentType": 5126,
			"min": [
				3.333
			],
			"max": [
				3.333
			],
			"count": 1
		},
		{
			"name": "ROT_VALUES_12_0",
			"bufferView": 32,
			"byteOffset": 0,
			"type": "VEC4",
			"componentType": 5126,
			"min": [
				-0.2988372447889645,
				-0.2988372447889645,
				-0.640858180486465,
				0.640858180486465
			],
			"max": [
				-0.2988372447889645,
				-0.2988372447889645,
				-0.640858180486465,
				0.640858180486465
			],
			"count": 1
		},
		{
			"name": "ROT_TIMESTAMPS_14_0",
			"bufferView": 33,
			"byteOffset": 0,
			"type": "SCALAR",
			"componentType": 5126,
			"min": [
				3.333
			],
			"max": [
				3.333
			],
			"count": 1
		},
		{
			"name": "ROT_VALUES_14_0",
			"bufferView": 34,
			"byteOffset": 0,
			"type": "VEC4",
			"componentType": 5126,
			"min": [
				-0.2988372447889645,
				-0.2988372447889645,
				-0.640858180486465,
				0.640858180486465
			],
			"max": [
				-0.2988372447889645,
				-0.2988372447889645,
				-0.640858180486465,
				0.640858180486465
			],
			"count": 1
		},
		{
			"name": "TEXCOORD_0",
			"bufferView": 35,
			"byteOffset": 0,
			"componentType": 5126,
			"count": 448,
			"type": "VEC2",
			"min": [
				0,
				0
			],
			"max": [
				1,
				1
			]
		},
		{
			"name": "TEXCOORD_1",
			"bufferView": 36,
			"byteOffset": 0,
			"componentType": 5126,
			"count": 448,
			"type": "VEC2",
			"min": [
				0,
				0
			],
			"max": [
				0,
				0
			]
		},
		{
			"bufferView": 37,
			"byteOffset": 0,
			"componentType": 5121,
			"count": 6,
			"type": "SCALAR"
		},
		{
			"bufferView": 38,
			"byteOffset": 0,
			"componentType": 5121,
			"count": 672,
			"type": "SCALAR"
		},
		{
			"bufferView": 39,
			"byteOffset": 0,
			"componentType": 5121,
			"count": 6,
			"type": "SCALAR"
		},
		{
			"bufferView": 40,
			"byteOffset": 0,
			"componentType": 5121,
			"count": 6,
			"type": "SCALAR"
		},
		{
			"bufferView": 41,
			"byteOffset": 0,
			"componentType": 5121,
			"count": 6,
			"type": "SCALAR"
		},
		{
			"bufferView": 42,
			"byteOffset": 0,
			"componentType": 5123,
			"count": 672,
			"type": "SCALAR"
		}
	],
	"meshes": [
		{
			"primitives": [
				{
					"attributes": {
						"POSITION": 0,
						"NORMAL": 1,
						"JOINTS_0": 2,
						"WEIGHTS_0": 3,
						"TEXCOORD_0": 35,
						"TEXCOORD_1": 36
					},
					"indices": 37,
					"mode": 4,
					"material": 0
				}
			]
		},
		{
			"primitives": [
				{
					"attributes": {
						"POSITION": 0,
						"NORMAL": 1,
						"JOINTS_0": 2,
						"WEIGHTS_0": 3,
						"TEXCOORD_0": 35,
						"TEXCOORD_1": 36
					},
					"indices": 38,
					"mode": 4,
					"material": 1
				}
			]
		},
		{
			"primitives": [
				{
					"attributes": {
						"POSITION": 0,
						"NORMAL": 1,
						"JOINTS_0": 2,
						"WEIGHTS_0": 3,
						"TEXCOORD_0": 35,
						"TEXCOORD_1": 36
					},
					"indices": 39,
					"mode": 4,
					"material": 0
				}
			]
		},
		{
			"primitives": [
				{
					"attributes": {
						"POSITION": 0,
						"NORMAL": 1,
						"JOINTS_0": 2,
						"WEIGHTS_0": 3,
						"TEXCOORD_0": 35,
						"TEXCOORD_1": 36
					},
					"indices": 40,
					"mode": 4,
					"material": 0
				}
			]
		},
		{
			"primitives": [
				{
					"attributes": {
						"POSITION": 0,
						"NORMAL": 1,
						"JOINTS_0": 2,
						"WEIGHTS_0": 3,
						"TEXCOORD_0": 35,
						"TEXCOORD_1": 36
					},
					"indices": 41,
					"mode": 4,
					"material": 2
				}
			]
		},
		{
			"primitives": [
				{
					"attributes": {
						"POSITION": 0,
						"NORMAL": 1,
						"JOINTS_0": 2,
						"WEIGHTS_0": 3,
						"TEXCOORD_0": 35,
						"TEXCOORD_1": 36
					},
					"indices": 42,
					"mode": 4,
					"material": 1
				}
			]
		}
	],
	"scene": 0,
	"skins": [
		{
			"name": "battlestance_impact_head_Armature",
			"joints": [
				3,
				5,
				7,
				9,
				11,
				13,
				15,
				17,
				19,
				21,
				23,
				25,
				27,
				29,
				31
			],
			"inverseBindMatrices": 4,
			"skeleton": 0
		}
	],
	"animations": [
		{
			"samplers": [
				{
					"input": 5,
					"interpolation": "LINEAR",
					"output": 6
				},
				{
					"input": 7,
					"interpolation": "LINEAR",
					"output": 8
				},
				{
					"input": 9,
					"interpolation": "LINEAR",
					"output": 10
				},
				{
					"input": 11,
					"interpolation": "LINEAR",
					"output": 12
				},
				{
					"input": 13,
					"interpolation": "LINEAR",
					"output": 14
				},
				{
					"input": 15,
					"interpolation": "LINEAR",
					"output": 16
				},
				{
					"input": 17,
					"interpolation": "LINEAR",
					"output": 18
				},
				{
					"input": 19,
					"interpolation": "LINEAR",
					"output": 20
				},
				{
					"input": 21,
					"interpolation": "LINEAR",
					"output": 22
				},
				{
					"input": 23,
					"interpolation": "LINEAR",
					"output": 24
				},
				{
					"input": 25,
					"interpolation": "LINEAR",
					"output": 26
				},
				{
					"input": 27,
					"interpolation": "LINEAR",
					"output": 28
				},
				{
					"input": 29,
					"interpolation": "LINEAR",
					"output": 30
				},
				{
					"input": 31,
					"interpolation": "STEP",
					"output": 32
				},
				{
					"input": 33,
					"interpolation": "STEP",
					"output": 34
				}
			],
			"channels": [
				{
					"sampler": 0,
					"target": {
						"node": 5,
						"path": "scale"
					}
				},
				{
					"sampler": 1,
					"target": {
						"node": 7,
						"path": "translation"
					}
				},
				{
					"sampler": 2,
					"target": {
						"node": 7,
						"path": "rotation"
					}
				},
				{
					"sampler": 3,
					"target": {
						"node": 9,
						"path": "translation"
					}
				},
				{
					"sampler": 4,
					"target": {
						"node": 9,
						"path": "rotation"
					}
				},
				{
					"sampler": 5,
					"target": {
						"node": 11,
						"path": "scale"
					}
				},
				{
					"sampler": 6,
					"target": {
						"node": 13,
						"path": "scale"
					}
				},
				{
					"sampler": 7,
					"target": {
						"node": 15,
						"path": "translation"
					}
				},
				{
					"sampler": 8,
					"target": {
						"node": 15,
						"path": "rotation"
					}
				},
				{
					"sampler": 9,
					"target": {
						"node": 15,
						"path": "scale"
					}
				},
				{
					"sampler": 10,
					"target": {
						"node": 17,
						"path": "translation"
					}
				},
				{
					"sampler": 11,
					"target": {
						"node": 17,
						"path": "rotation"
					}
				},
				{
					"sampler": 12,
					"target": {
						"node": 17,
						"path": "scale"
					}
				},
				{
					"sampler": 13,
					"target": {
						"node": 27,
						"path": "rotation"
					}
				},
				{
					"sampler": 14,
					"target": {
						"node": 31,
						"path": "rotation"
					}
				}
			],
			"name": "Stand (ID 0 variation 0)"
		}
	],
	"images": [
		{
			"uri": "genericglow64.png"
		},
		{
			"uri": "..\\item\\objectcomponents\\weapon\\mace_1h_spiked_a_02_gray.png"
		},
		{
			"uri": "genericglow2c.png"
		},
		{
			"uri": "star4.png"
		},
		{
			"uri": "..\\item\\objectcomponents\\weapon\\flare.png"
		},
		{
			"uri": "shockwave9.png"
		},
		{
			"uri": "..\\item\\objectcomponents\\head\\helm_robe_raidpriest_f_01particlesa.png"
		}
	],
	"textures": [
		{
			"source": 0
		},
		{
			"source": 1
		},
		{
			"source": 2
		},
		{
			"source": 3
		},
		{
			"source": 4
		},
		{
			"source": 5
		},
		{
			"source": 6
		}
	],
	"materials": [
		{
			"name": "genericglow64",
			"emissiveFactor": [
				0,
				0,
				0
			],
			"pbrMetallicRoughness": {
				"baseColorTexture": {
					"index": 0
				},
				"metallicFactor": 0
			}
		},
		{
			"name": "mace_1h_spiked_a_02_gray",
			"emissiveFactor": [
				0,
				0,
				0
			],
			"pbrMetallicRoughness": {
				"baseColorTexture": {
					"index": 1
				},
				"metallicFactor": 0
			}
		},
		{
			"name": "genericglow2c",
			"emissiveFactor": [
				0,
				0,
				0
			],
			"pbrMetallicRoughness": {
				"baseColorTexture": {
					"index": 2
				},
				"metallicFactor": 0
			}
		},
		{
			"name": "star4",
			"emissiveFactor": [
				0,
				0,
				0
			],
			"pbrMetallicRoughness": {
				"baseColorTexture": {
					"index": 3
				},
				"metallicFactor": 0
			}
		},
		{
			"name": "flare",
			"emissiveFactor": [
				0,
				0,
				0
			],
			"pbrMetallicRoughness": {
				"baseColorTexture": {
					"index": 4
				},
				"metallicFactor": 0
			}
		},
		{
			"name": "shockwave9",
			"emissiveFactor": [
				0,
				0,
				0
			],
			"pbrMetallicRoughness": {
				"baseColorTexture": {
					"index": 5
				},
				"metallicFactor": 0
			}
		},
		{
			"name": "helm_robe_raidpriest_f_01particlesa",
			"emissiveFactor": [
				0,
				0,
				0
			],
			"pbrMetallicRoughness": {
				"baseColorTexture": {
					"index": 6
				},
				"metallicFactor": 0
			}
		}
	]
}